<svg width="770" height="657" viewBox="0 0 770 657" fill="none" xmlns="http://www.w3.org/2000/svg">
<path d="M161.783 83.5345C187.124 85.2373 197.735 67.9499 209.627 45.7326C242.22 -15.0812 314.822 -9.22686 339.174 28.2182C356.42 54.7493 393.621 49.2841 423.7 38.9052C453.309 28.6885 503.765 18.8772 543.968 31.0886C579.076 41.7594 593.467 80.2262 625.476 77.8585C695.288 72.7015 730.477 141.575 717.823 171.625C709.565 191.232 705.476 213.173 712.177 233.347C719.558 255.565 736.447 273.16 750.092 292.264C763.736 311.367 774.72 335.255 767.938 357.667C762.13 376.852 744.819 390.117 734.079 407.064C700.706 459.721 733.722 540.433 689.252 584.332C657.421 615.745 605.537 608.495 561.003 614.496C523.866 619.491 488.92 635.091 451.946 641.189C377.073 653.563 301.47 626.318 225.575 625.54C198.838 625.264 171.598 628.248 145.705 621.664C111.148 612.874 81.7503 586.294 69.7609 553.033C53.2126 507.139 68.8848 454.012 50.2111 408.929C34.9932 372.197 -2.24056 342.309 0.111894 302.675C1.57204 277.993 18.4286 257.365 30.0287 235.472C47.2584 202.957 24.4314 74.3556 161.783 83.5345ZM382.719 23.9532C376.051 23.9532 370.665 28.0885 370.665 33.1806C370.665 38.2728 376.083 41.9703 382.719 42.4081C404.378 43.8352 404.378 35.0942 404.378 29.9859C404.378 21.8449 389.371 23.9532 382.719 23.9532ZM602.666 63.3281C608.458 68.1121 615.839 70.9663 623.367 71.3555C625.379 71.4528 627.569 71.3231 629.11 70.0581C631.025 68.4851 631.236 65.2579 629.532 63.4578C628.462 62.3226 626.904 61.8199 625.444 61.2199C622.962 60.2144 620.544 58.7711 619.133 56.5169C618.727 55.8682 618.37 55.106 617.705 54.733C613.536 52.3816 595.04 57.0359 602.666 63.3281ZM639.559 71.4852C641.473 72.1501 643.55 71.5339 645.48 70.9176C646.713 70.5122 648.222 69.6365 647.898 68.404C647.735 67.804 647.184 67.4148 646.632 67.1228C644.101 65.7768 640.824 64.7714 638.293 66.5066C635.746 68.2256 637.66 70.8365 639.559 71.4852ZM727.638 245.445C727.962 248.316 729.747 250.797 731.451 253.132C734.76 257.64 738.119 262.214 742.483 265.733C744.332 267.225 746.474 268.554 748.859 268.635C751.033 268.717 753.109 267.727 754.862 266.462C759.145 263.397 762.032 258.484 762.633 253.278C763.444 246.142 760.118 239.185 756.257 233.104C753.856 229.342 751.065 225.579 747.074 223.568C740.357 220.179 735.928 223.131 734.046 229.082C732.343 234.564 726.94 239.348 727.638 245.445ZM13.1721 411.67C9.63529 414.783 12.8314 423.897 13.8697 429.914C14.178 431.714 14.5998 433.579 15.7355 435.022C17.2929 436.984 19.8888 437.795 22.3061 438.509C26.6054 439.757 31.8295 440.812 35.123 437.795C37.5565 435.557 37.9135 431.892 37.8972 428.6C37.8972 425.584 37.735 422.584 37.4105 419.583C37.2645 418.14 37.0536 416.664 36.2749 415.432C35.2852 413.859 33.533 412.951 31.8295 412.221C25.6807 409.626 16.7089 408.572 13.1721 411.67ZM229.306 639.956C227.213 640.378 224.715 641.286 224.407 643.378C224.163 645.114 225.607 646.589 227.019 647.627C238.554 656.238 254.096 656.79 268.535 656.984C270.223 657.001 271.975 657.017 273.516 656.368C276.599 655.071 278.091 651 276.647 648C276.128 646.897 275.301 645.973 274.425 645.13C262.841 633.826 243.762 637.07 229.306 639.956ZM517.539 634.135C504.511 643.654 517.685 652.168 534.136 645.859C542.994 642.454 551.496 639.097 560.581 636.827C563.517 636.097 581.25 632.253 581.25 628.28C581.25 617.723 561.279 620.22 548.705 621.972C538.565 623.383 528.279 626.286 517.539 634.135Z" fill="#ECF3FF"/>
</svg>
